# xmcd
#
# Track frame offsets: 
#        150
#        23119
#        40150
#        56830
#
# Disc length: 1061 seconds
#
# Revision: 0
# Processed by: cddbd v1.5.2PL0 Copyright (c) Steve Scherf et al.
# Submitted via: ExactAudioCopy v0.95b4
#
DISCID=2d042304
DTITLE=GARNET CROW - Doing all right [Type A]
DYEAR=2009
DGENRE=Pop
TTITLE0=Doing all right
TTITLE1=Nora
TTITLE2=Doing all right (Acoustic vocal ver.)
TTITLE3=Doing all right (Instrumental)
EXTD=
EXTT0=
EXTT1=
EXTT2=
EXTT3=
PLAYORDER=
